<svg enable-background="new 0 0 600 600" viewBox="0 0 600 600" xmlns="http://www.w3.org/2000/svg"><path d="m0 0h600v600h-600z" fill="#eefcff"/><path d="m476 601c-157 0-314 0-471 .1-3.4 0-4.1-.7-4.1-4.1.1-119.7.1-239.3.1-359 8-5.6 22.4-2.9 18.2-22.1-7.7-34.8-7.2-68.4 20-98.2 48.3-52.8 140.3-51.8 160.5 29.5 3.4 13.5 4.4 28.2 26 16.3 9.4-5.2 12.5-7.5 10.4-18.4-8-41.2 20.1-93.2 57.2-101.3 81.2-17.7 113.7 12.5 127 91.6.3 2 1.1 5.7 1.6 5.7 28.6.1 55.9 7.6 83 15.1 22.1 6.1 44.5 15.2 59.6 32.3 24.5 27.6 19.6 62.7 11.8 94.4-26.6 108-55.8 215.5-100.3 318.1z" fill="#adef8f"/><path d="m67.5 185.5c.1-24.1 21.5-47.2 40.3-47 22.8.2 42.9 18.5 42.7 38.8-.3 25.4-19.6 47-42.5 45.6-24.7-1.7-41.3-13.1-40.5-37.4z"/><path d="m327.6 162.9c-23.3-1.3-40-9.4-38.6-36.9 1.4-26 21-45.7 44-44.9 26 .9 38.1 16.6 39.3 39.8 1.2 23.4-21.5 42.9-44.7 42z"/><g fill="#fa5c5c"><path d="m399.3 288.1c4.6-1.3 9.5-1.3 15 .7 7 2.5 12.9 7.7 17.1 13.8 17.8 25.5 5.1 51.3-14.8 70.1-26.2 24.7-65.5 34.1-100.8 33.3-19-.4-45.2-5.3-58-21-12.9-16-6-46.9 16.6-49.5 18.4-2.1 36.2-6.7 54.2-10.2 14.5-2.8 27.9-9.2 40.3-17.1 10.2-6.5 19.3-17 30.4-20.1z"/><path d="m269.2 394.6c-.8-.5-1.5-1.1-2.3-1.6.8.6 1.6 1.1 2.3 1.6z"/></g></svg>