<?xml version="1.0" encoding="UTF-8" standalone="no"?>
<!-- Generator: Adobe Illustrator 21.1.0, SVG Export Plug-In . SVG Version: 6.00 Build 0)  -->

<svg
   xmlns:dc="http://purl.org/dc/elements/1.1/"
   xmlns:cc="http://creativecommons.org/ns#"
   xmlns:rdf="http://www.w3.org/1999/02/22-rdf-syntax-ns#"
   xmlns:svg="http://www.w3.org/2000/svg"
   xmlns="http://www.w3.org/2000/svg"
   xmlns:sodipodi="http://sodipodi.sourceforge.net/DTD/sodipodi-0.dtd"
   xmlns:inkscape="http://www.inkscape.org/namespaces/inkscape"
   version="1.1"
   id="Layer_1"
   x="0px"
   y="0px"
   viewBox="0 0 600 600"
   style="enable-background:new 0 0 600 600;"
   xml:space="preserve"
   sodipodi:docname="frog-gold.svg"
   inkscape:version="0.92.1 r"><metadata
     id="metadata4603"><rdf:RDF><cc:Work
         rdf:about=""><dc:format>image/svg+xml</dc:format><dc:type
           rdf:resource="http://purl.org/dc/dcmitype/StillImage" /><dc:title></dc:title></cc:Work></rdf:RDF></metadata><defs
     id="defs4601" /><sodipodi:namedview
     pagecolor="#ffffff"
     bordercolor="#666666"
     borderopacity="1"
     objecttolerance="10"
     gridtolerance="10"
     guidetolerance="10"
     inkscape:pageopacity="0"
     inkscape:pageshadow="2"
     inkscape:window-width="1462"
     inkscape:window-height="940"
     id="namedview4599"
     showgrid="false"
     inkscape:zoom="0.99702056"
     inkscape:cx="257.40183"
     inkscape:cy="315.94107"
     inkscape:window-x="315"
     inkscape:window-y="88"
     inkscape:window-maximized="1"
     inkscape:current-layer="Layer_1"
     inkscape:measure-start="0,0"
     inkscape:measure-end="0,0" /><style
     type="text/css"
     id="style4578">
	.st0{fill:#EEFCFF;}
	.st1{fill:#ADEF8F;}
	.st2{fill:#FA5C5C;}
</style><rect
     class="st0"
     width="600"
     height="600"
     id="rect4580"
     style="fill:#effff1;fill-opacity:1" /><g
     id="rd6Cj0.tif"
     style="fill:#ffd37f;fill-opacity:1"><g
       id="g4584"
       style="fill:#ffd37f;fill-opacity:1"><path
         class="st1"
         d="M476,601c-157,0-314,0-471,0.1c-3.4,0-4.1-0.7-4.1-4.1C1,477.3,1,357.7,1,238c8-5.6,22.4-2.9,18.2-22.1    c-7.7-34.8-7.2-68.4,20-98.2c48.3-52.8,140.3-51.8,160.5,29.5c3.4,13.5,4.4,28.2,26,16.3c9.4-5.2,12.5-7.5,10.4-18.4    c-8-41.2,20.1-93.2,57.2-101.3c81.2-17.7,113.7,12.5,127,91.6c0.3,2,1.1,5.7,1.6,5.7c28.6,0.1,55.9,7.6,83,15.1    c22.1,6.1,44.5,15.2,59.6,32.3c24.5,27.6,19.6,62.7,11.8,94.4C549.7,390.9,520.5,498.4,476,601z"
         id="path4582"
         style="fill:#ffd37f;fill-opacity:1" /></g></g><path
     d="M67.5,185.5c0.1-24.1,21.5-47.2,40.3-47c22.8,0.2,42.9,18.5,42.7,38.8c-0.3,25.4-19.6,47-42.5,45.6  C83.3,221.2,66.7,209.8,67.5,185.5z"
     id="path4587" /><path
     d="M327.6,162.9c-23.3-1.3-40-9.4-38.6-36.9c1.4-26,21-45.7,44-44.9c26,0.9,38.1,16.6,39.3,39.8  C373.5,144.3,350.8,163.8,327.6,162.9z"
     id="path4589" /><g
     id="Q9gpIO.tif"
     style="fill:#fa5c5c;fill-opacity:1"><g
       id="g4595"
       style="fill:#fa5c5c;fill-opacity:1"><path
         class="st2"
         d="M399.3,288.1c4.6-1.3,9.5-1.3,15,0.7c7,2.5,12.9,7.7,17.1,13.8c17.8,25.5,5.1,51.3-14.8,70.1    c-26.2,24.7-65.5,34.1-100.8,33.3c-19-0.4-45.2-5.3-58-21c-12.9-16-6-46.9,16.6-49.5c18.4-2.1,36.2-6.7,54.2-10.2    c14.5-2.8,27.9-9.2,40.3-17.1C379.1,301.7,388.2,291.2,399.3,288.1z"
         id="path4591"
         style="fill:#fa5c5c;fill-opacity:1" /><path
         class="st2"
         d="M269.2,394.6c-0.8-0.5-1.5-1.1-2.3-1.6C267.7,393.6,268.5,394.1,269.2,394.6z"
         id="path4593"
         style="fill:#fa5c5c;fill-opacity:1" /></g></g></svg>