<?xml version="1.0" encoding="UTF-8" standalone="no"?>
<svg id="svg4279" xmlns:rdf="http://www.w3.org/1999/02/22-rdf-syntax-ns#" xmlns="http://www.w3.org/2000/svg" height="708.72" width="708.72" version="1.1" xmlns:cc="http://creativecommons.org/ns#" xmlns:dc="http://purl.org/dc/elements/1.1/" viewBox="0 0 708.7207 708.7207">
 <path id="path4282" d="m15 5a10.001 10.001 0 0 0 -10 10v678.72a10.001 10.001 0 0 0 10 10h678.72a10.001 10.001 0 0 0 10 -10v-678.72a10.001 10.001 0 0 0 -10 -10h-678.72zm10 20h658.72v658.72h-658.72v-658.72zm73.359 73.359v208l80-80 96 96 48-48-96-96 80-80h-208zm304 0 80 80-96 96 48 48 96-96 80 80v-208h-208zm-128 288-96 96-80-80v208h208l-80-80 96-96-48-48zm160 0-48 48 96 96-80 80h208v-208l-80 80-96-96z" stroke="#000" stroke-width="10" fill="#fff"/>
</svg>
