<svg xmlns="http://www.w3.org/2000/svg" height="177.53" width="581.25"><g fill="#fff"><path d="M33 9.53l-23 27v7.688c0 9.746 8.96 18.312 17.094 18.312 9.767 0 17.905-8.232 17.906-18 0 9.768 7.857 18 17.625 18S80 54.298 80 44.53c0 9.768 8.357 18 18.125 18 9.766 0 17.875-8.232 17.875-18 0 9.768 7.89 18 17.656 18 9.768 0 17.344-8.232 17.344-18 0 9.768 8.39 18 18.156 18 9.768 0 17.844-8.232 17.844-18v-8l-25-27c-43.646-.116-129 0-129 0z" fill-rule="evenodd"/><path d="M209.38 76.205h24.142v71.554h-24.14V76.204zm12.217-5.817c-4.07 0-7.197-1.02-9.38-3.054-2.18-2.036-3.272-4.75-3.272-8.145 0-3.2 1.09-5.916 3.272-8.145 2.183-2.23 5.31-3.345 9.38-3.345 4.073 0 7.2 1.115 9.38 3.345 2.183 2.23 3.274 4.945 3.274 8.144 0 3.393-1.09 6.108-3.272 8.144-2.18 2.035-5.308 3.054-9.38 3.054M268.706 149.205c-6.98 0-12.24-1.866-15.78-5.6-3.54-3.732-5.31-8.944-5.31-15.634V94.086h-9.596v-17.89h9.597v-17.45h24.143v17.45h15.707v17.89H271.76v30.396c0 2.23.46 3.806 1.382 4.728s2.35 1.38 4.29 1.38c2.618 0 5.478-1.162 8.58-3.49l5.528 15.853c-2.81 1.94-6.01 3.468-9.6 4.583s-8 1.672-13.234 1.672M327.144 149.205c-11.053 0-19.755-3.15-26.105-9.454-6.353-6.3-9.528-15.464-9.528-27.485 0-8.726 1.794-16.047 5.38-21.96 3.685-6.11 8.292-10.23 13.82-12.364 5.815-2.23 11.197-3.344 16.142-3.344 6.203 0 11.392 1.237 15.56 3.71 4.17 2.472 7.248 5.162 9.236 8.07s3.417 5.188 4.29 6.837l-16.725 10.76c-1.55-3.198-3.248-5.72-5.09-7.562-1.843-1.84-4.073-2.76-6.69-2.76-3.685 0-6.593 1.453-8.726 4.36-2.134 2.91-3.2 7.32-3.2 13.236 0 6.4 1.26 11.102 3.78 14.108 2.52 3.005 6.11 4.507 10.762 4.507 3.684 0 6.763-.676 9.237-2.035 2.47-1.356 4.82-3.1 7.05-5.235l7.71 18.034c-2.328 1.94-5.77 3.855-10.325 5.745-4.56 1.89-10.085 2.835-16.58 2.835M361.594 147.755v-97.15h24.287v29.523c2.037-1.455 4.51-2.74 7.417-3.854 2.91-1.115 6.4-1.673 10.473-1.673 8.53 0 14.907 2.425 19.125 7.273s6.326 11.683 6.326 20.506v45.375h-24.286v-42.467c0-4.072-.775-7.054-2.327-8.944-1.552-1.89-3.59-2.836-6.11-2.836-2.132 0-4.12.485-5.962 1.455-1.84.968-3.394 1.986-4.654 3.052v49.74h-24.286zM448.544 149.205c-3.88 0-6.933-1.115-9.162-3.345-2.23-2.23-3.346-5.09-3.346-8.58s1.116-6.4 3.346-8.726c2.23-2.328 5.283-3.49 9.162-3.49 3.685 0 6.64 1.162 8.872 3.49 2.23 2.326 3.344 5.235 3.344 8.725 0 3.49-1.09 6.35-3.273 8.58-2.18 2.23-5.162 3.345-8.943 3.345M468.306 76.205h24.14v71.554h-24.14V76.204zm12.217-5.817c-4.072 0-7.2-1.02-9.38-3.054-2.182-2.036-3.272-4.75-3.272-8.145 0-3.2 1.09-5.916 3.272-8.145 2.18-2.23 5.31-3.345 9.38-3.345 4.073 0 7.2 1.115 9.38 3.345 2.183 2.23 3.274 4.945 3.274 8.144 0 3.393-1.09 6.108-3.273 8.144-2.182 2.035-5.308 3.054-9.38 3.054M535.62 149.205c-5.625 0-10.62-.945-14.98-2.836-4.365-1.89-8.073-4.51-11.128-7.855-3.054-3.345-5.38-7.32-6.98-11.925-1.6-4.605-2.4-9.624-2.4-15.052 0-8.048 1.745-15.078 5.235-21.09 3.588-5.913 8.073-10.034 13.454-12.362 5.38-2.326 10.98-3.49 16.798-3.49 8.338 0 15.223 1.94 20.652 5.818 5.526 3.88 9.405 8.726 11.635 14.544s3.345 11.343 3.345 16.58c0 5.428-.8 10.447-2.4 15.052-1.6 4.605-3.928 8.58-6.98 11.925-3.054 3.346-6.788 5.964-11.2 7.854-4.41 1.89-9.428 2.835-15.05 2.835m0-18.616c4.07 0 7.027-1.72 8.87-5.164 1.84-3.44 2.764-8.07 2.764-13.888 0-5.528-.97-9.94-2.91-13.235-1.94-3.297-4.847-4.945-8.725-4.945-3.783 0-6.643 1.648-8.583 4.945-1.938 3.296-2.908 7.707-2.908 13.235 0 5.817.944 10.447 2.835 13.888 1.89 3.443 4.773 5.163 8.653 5.163M45.006 58.03c-.93 1.66-2.224 3.08-3.563 4.412-3.687 3.666-8.772 5.937-14.343 5.937-1.434 0-5.094-.845-5.094-.845v100h154V66.973c-2.3.904-4.234 1.406-6.844 1.406-5.577 0-10.656-2.27-14.344-5.938-1.336-1.332-2.477-2.843-3.406-4.5-.93 1.66-2.1 3.166-3.437 4.5-3.688 3.663-8.74 5.937-14.313 5.937-5.575 0-10.657-2.27-14.344-5.938-1.336-1.332-2.508-2.844-3.437-4.5-.93 1.66-2.065 3.166-3.405 4.5-3.688 3.663-8.77 5.937-14.344 5.937s-10.656-2.27-14.343-5.938c-1.337-1.33-2.477-2.844-3.406-4.5-.93 1.66-2.095 3.167-3.436 4.5-3.687 3.666-8.742 5.937-14.313 5.937-5.574 0-10.657-2.27-14.343-5.938-1.336-1.33-2.35-2.756-3.28-4.412zm22.15 18.475c6.717 0 11.495 4.35 13.188 10.906h37.125c1.69-6.556 6.437-10.905 13.155-10.905 10.67 0 22.4 10.956 26.062 24.344l8.75 31.967c3.663 13.388-2.08 24.344-12.75 24.344-9.367 0-19.55-8.44-24.375-19.56H69.468c-4.824 11.12-15.006 19.56-24.374 19.56-10.672 0-16.413-10.955-12.75-24.343l8.75-31.968c3.662-13.39 15.39-24.345 26.062-24.345z"/><path d="M85.743 104.83l-12.538 13.45h12.352v13.866h24.625V118.28h13.174l-12.54-13.45L98.28 91.38z"/></g></svg>