<svg xmlns="http://www.w3.org/2000/svg" height="210" width="210"><path d="M38 26.25l-23 27v7.687c0 9.747 8.96 18.313 17.094 18.313 9.767 0 17.905-8.233 17.906-18 0 9.767 7.857 18 17.625 18S85 71.017 85 61.25c0 9.767 8.357 18 18.125 18 9.766 0 17.875-8.233 17.875-18 0 9.767 7.89 18 17.656 18 9.768 0 17.344-8.233 17.344-18 0 9.767 8.39 18 18.156 18 9.768 0 17.844-8.233 17.844-18v-8l-25-27c-43.646-.116-129 0-129 0z" fill-rule="evenodd"/><path d="M50.006 74.75c-.93 1.66-2.224 3.08-3.563 4.412C42.757 82.828 37.672 85.1 32.1 85.1c-1.434 0-5.094-.845-5.094-.845v100h154V83.693c-2.3.904-4.234 1.406-6.844 1.406-5.577 0-10.656-2.27-14.344-5.938-1.336-1.332-2.477-2.843-3.406-4.5-.93 1.66-2.1 3.166-3.437 4.5-3.688 3.663-8.74 5.937-14.313 5.937-5.575 0-10.657-2.27-14.344-5.938-1.336-1.332-2.508-2.844-3.437-4.5-.93 1.66-2.065 3.166-3.405 4.5-3.688 3.663-8.77 5.937-14.344 5.937s-10.656-2.27-14.343-5.938c-1.337-1.33-2.477-2.844-3.406-4.5-.93 1.66-2.095 3.167-3.436 4.5C78.257 82.828 73.2 85.1 67.63 85.1c-5.574 0-10.656-2.27-14.343-5.938-1.336-1.33-2.35-2.756-3.28-4.412zm22.15 18.475c6.717 0 11.495 4.35 13.188 10.906h37.125c1.69-6.556 6.437-10.905 13.155-10.905 10.67 0 22.4 10.956 26.062 24.344l8.75 31.968c3.663 13.387-2.08 24.343-12.75 24.343-9.367 0-19.55-8.44-24.375-19.56H74.468c-4.824 11.12-15.006 19.56-24.374 19.56-10.672 0-16.413-10.955-12.75-24.343l8.75-31.968c3.662-13.39 15.39-24.345 26.062-24.345z"/><path d="M90.743 121.55L78.205 135h12.352v13.866h24.625V135h13.174l-12.54-13.45-12.536-13.45z"/></svg>