<?xml version="1.0" encoding="UTF-8" standalone="no"?>
<svg
   xmlns:dc="http://purl.org/dc/elements/1.1/"
   xmlns:cc="http://creativecommons.org/ns#"
   xmlns:rdf="http://www.w3.org/1999/02/22-rdf-syntax-ns#"
   xmlns:svg="http://www.w3.org/2000/svg"
   xmlns="http://www.w3.org/2000/svg"
   xmlns:sodipodi="http://sodipodi.sourceforge.net/DTD/sodipodi-0.dtd"
   xmlns:inkscape="http://www.inkscape.org/namespaces/inkscape"
   height="168.69514"
   width="402.48669"
   version="1.1"
   id="svg2"
   inkscape:version="0.91 r13725"
   sodipodi:docname="app-white-contour.svg">
  <metadata
     id="metadata16">
    <rdf:RDF>
      <cc:Work
         rdf:about="">
        <dc:format>image/svg+xml</dc:format>
        <dc:type
           rdf:resource="http://purl.org/dc/dcmitype/StillImage" />
        <dc:title></dc:title>
      </cc:Work>
    </rdf:RDF>
  </metadata>
  <defs
     id="defs14" />
  <sodipodi:namedview
     pagecolor="#000000"
     bordercolor="#666666"
     borderopacity="1"
     objecttolerance="10"
     gridtolerance="10"
     guidetolerance="10"
     inkscape:pageopacity="0"
     inkscape:pageshadow="2"
     inkscape:window-width="1920"
     inkscape:window-height="1027"
     id="namedview12"
     showgrid="false"
     inkscape:zoom="2.1574634"
     inkscape:cx="187.9773"
     inkscape:cy="136.14992"
     inkscape:window-x="-8"
     inkscape:window-y="-8"
     inkscape:window-maximized="1"
     inkscape:current-layer="g6"
     fit-margin-top="10"
     fit-margin-right="10"
     fit-margin-left="10"
     fit-margin-bottom="10" />
  <path
     d="m 172.1347,62.095152 24.142,0 0,71.553998 -24.14,0 0,-71.555998 z m 12.217,-5.817 c -4.07,0 -7.197,-1.02 -9.38,-3.054 -2.18,-2.036 -3.272,-4.75 -3.272,-8.145 0,-3.2 1.09,-5.916 3.272,-8.145 2.183,-2.23 5.31,-3.345 9.38,-3.345 4.073,0 7.2,1.115 9.38,3.345 2.183,2.23 3.274,4.945 3.274,8.144 0,3.393 -1.09,6.108 -3.272,8.144 -2.18,2.035 -5.308,3.054 -9.38,3.054 m 47.11,78.813998 c -6.98,0 -12.24,-1.866 -15.78,-5.6 -3.54,-3.732 -5.31,-8.944 -5.31,-15.634 l 0,-33.883998 -9.596,0 0,-17.89 9.597,0 0,-17.45 24.143,0 0,17.45 15.707,0 0,17.89 -15.71,0 0,30.395998 c 0,2.23 0.46,3.806 1.382,4.728 0.922,0.922 2.35,1.38 4.29,1.38 2.618,0 5.478,-1.162 8.58,-3.49 l 5.528,15.853 c -2.81,1.94 -6.01,3.468 -9.6,4.583 -3.59,1.115 -8,1.672 -13.234,1.672 m 58.43,0 c -11.053,0 -19.755,-3.15 -26.105,-9.454 -6.353,-6.3 -9.528,-15.464 -9.528,-27.484998 0,-8.726 1.794,-16.047 5.38,-21.96 3.685,-6.11 8.292,-10.23 13.82,-12.364 5.815,-2.23 11.197,-3.344 16.142,-3.344 6.203,0 11.392,1.237 15.56,3.71 4.17,2.472 7.248,5.162 9.236,8.07 1.988,2.908 3.417,5.188 4.29,6.837 l -16.725,10.76 c -1.55,-3.198 -3.248,-5.72 -5.09,-7.562 -1.843,-1.84 -4.073,-2.76 -6.69,-2.76 -3.685,0 -6.593,1.453 -8.726,4.36 -2.134,2.91 -3.2,7.32 -3.2,13.236 0,6.399998 1.26,11.101998 3.78,14.107998 2.52,3.005 6.11,4.507 10.762,4.507 3.684,0 6.763,-0.676 9.237,-2.035 2.47,-1.356 4.82,-3.1 7.05,-5.235 l 7.71,18.034 c -2.328,1.94 -5.77,3.855 -10.325,5.745 -4.56,1.89 -10.085,2.835 -16.58,2.835 m 34.47,-1.44 0,-97.149998 24.287,0 0,29.523 c 2.037,-1.455 4.51,-2.74 7.417,-3.854 2.91,-1.115 6.4,-1.673 10.473,-1.673 8.53,0 14.907,2.425 19.125,7.273 4.218,4.848 6.326,11.683 6.326,20.506 l 0,45.374998 -24.286,0 0,-42.466998 c 0,-4.072 -0.775,-7.054 -2.327,-8.944 -1.552,-1.89 -3.59,-2.836 -6.11,-2.836 -2.132,0 -4.12,0.485 -5.962,1.455 -1.84,0.968 -3.394,1.986 -4.654,3.052 l 0,49.739998 -24.286,0 z"
     id="path4"
     style="fill:none;stroke:#ffffff;stroke-opacity:1"
     inkscape:connector-curvature="0" />
  <g
     transform="matrix(1,0.21625,0,1,-30.3723,-377.78285)"
     id="g6"
     style="fill:none">
    <path
       style="color:#000000;fill:none;fill-opacity:0.23457001;stroke:#ffffff;stroke-opacity:0.31360952"
       d="m 160.16,353.9 c -1.0274,-0.0432 -2.1572,0.14856 -3.3457,0.60156 l -107.36,40.92 c -4.7542,1.812 -8.582,7.1126 -8.582,11.885 l 0,107.77 c -1e-6,4.7722 3.8278,7.1538 8.582,5.3418 l 0.79297,-0.30273 c -0.19453,-0.64689 -0.30859,-1.3586 -0.30859,-2.1426 l 0,-107.77 c 0,-4.7722 3.843,-10.076 8.6152,-11.891 l 106.57,-40.52 c -0.66948,-2.3606 -2.517,-3.7901 -4.9551,-3.8926 z"
       id="path8"
       inkscape:connector-curvature="0" />
    <path
       style="color:#000000;fill:none;stroke:#ffffff;stroke-opacity:1"
       d="m 58.549,398.19 c -4.7722,1.8146 -8.6152,7.119 -8.6152,11.891 l 0,107.77 c 0,4.7722 3.843,7.152 8.6152,5.3374 l 107.77,-40.98 c 4.7722,-1.8146 8.6133,-7.1162 8.6133,-11.888 l 0,-107.77 c 0,-4.7722 -3.8411,-7.1547 -8.6133,-5.34 l -107.77,40.98 z m 30.461,23.154 0.008,-0.003 c 4.9574,-1.885 8.4829,-0.0134 9.7324,4.35 l 27.4,-10.419 c 1.2473,-5.3128 4.7509,-9.8573 9.709,-11.743 7.8748,-2.9944 16.532,1.7998 19.234,10.653 l 6.457,21.138 c 2.7034,8.8528 -1.5353,18.551 -9.4102,21.545 -6.9132,2.6287 -14.427,-0.74261 -17.988,-7.5955 l -43.436,16.516 c -3.5603,9.5608 -11.076,18.647 -17.99,21.276 -7.8763,2.995 -12.112,-3.4805 -9.4082,-14.389 l 6.457,-26.049 c 2.7027,-10.91 11.358,-22.286 19.234,-25.281 z m 17.035,7.5595 0,8.8066 -7.0703,2.6885 6.7305,5.9798 6.7266,5.9813 6.7344,-11.104 6.7305,-11.098 -6.6309,2.5214 0,-8.8027 -13.221,5.0272 z"
       id="path10"
       inkscape:connector-curvature="0" />
  </g>
</svg>
