<svg xmlns="http://www.w3.org/2000/svg" height="210" width="210"><g transform="matrix(1.25 0 0 -1.25 -84.344 832.3)"><rect rx="0" transform="scale(1 -1)" height="168" width="168" y="-665.84" x="67.475" fill="#ff8080"/><g fill="#fff"><path d="M97.875 644.84l-18.4-21.6v-6.15c0-7.797 7.167-14.65 13.675-14.65 7.814 0 14.324 6.586 14.325 14.4 0-7.814 6.286-14.4 14.1-14.4s13.9 6.586 13.9 14.4c0-7.814 6.686-14.4 14.5-14.4 7.813 0 14.3 6.586 14.3 14.4 0-7.814 6.312-14.4 14.125-14.4 7.814 0 13.875 6.586 13.875 14.4 0-7.814 6.712-14.4 14.525-14.4 7.814 0 14.275 6.586 14.275 14.4v6.4l-20 21.6c-34.917.093-103.2 0-103.2 0z" fill-rule="evenodd"/><path d="M107.48 606.04c-.744-1.328-1.78-2.463-2.85-3.53-2.95-2.932-7.018-4.75-11.475-4.75-1.147 0-4.075.676-4.075.676v-80h123.2v80.45c-1.84-.723-3.387-1.125-5.475-1.125-4.462 0-8.525 1.816-11.475 4.75-1.07 1.066-1.982 2.275-2.725 3.6-.745-1.328-1.68-2.532-2.75-3.6-2.95-2.93-6.993-4.75-11.45-4.75-4.46 0-8.526 1.816-11.475 4.75-1.07 1.066-2.007 2.276-2.75 3.6-.745-1.327-1.653-2.532-2.725-3.6-2.95-2.93-7.017-4.75-11.475-4.75-4.46 0-8.526 1.816-11.475 4.75-1.07 1.064-1.982 2.276-2.725 3.6-.745-1.327-1.677-2.533-2.75-3.6-2.95-2.932-6.993-4.75-11.45-4.75-4.46 0-8.526 1.816-11.475 4.75-1.07 1.064-1.88 2.205-2.625 3.53zm17.72-14.78c5.374 0 9.196-3.48 10.55-8.725h29.7c1.353 5.246 5.15 8.725 10.525 8.725 8.536 0 17.92-8.765 20.85-19.475l7-25.575c2.93-10.71-1.663-19.475-10.2-19.475-7.494 0-15.64 6.754-19.5 15.65H127.05c-3.86-8.896-12.005-15.65-19.5-15.65-8.537 0-13.13 8.765-10.2 19.475l7 25.575c2.93 10.71 12.313 19.475 20.85 19.475z"/><path d="M140.07 568.6l-10.03-10.76h9.88v-11.093h19.7v11.093h10.54l-10.03 10.76-10.03 10.76z"/></g></g></svg>