<svg height="147.67" width="147.67" xmlns="http://www.w3.org/2000/svg"><path d="m188.19074 341.72608c-254.609374 196.18473-127.304694 98.09237 0 0zm-37.6524 39.4396c-.71125.18219-1.42096.40707-2.12582.67508-7.10069 2.7006-12.11833 9.20773-13.90462 16.8164l-39.241187 14.92215c-1.789459-6.249-6.838496-8.93003-13.938181-6.23044l-.01146.006v-.003c-11.27953 4.2893-23.675669 20.58347-27.546312 36.20807l-9.247365 37.30532c-3.872219 15.62248 2.193908 24.89675 13.473852 20.60749 9.90181-3.76507 20.665683-16.77939 25.764528-30.47178l62.205774-23.65361c5.09983 9.81427 15.86106 14.6437 25.76172 10.87904 11.27796-4.28783 17.34829-18.1766 13.47664-30.85504l-9.24737-30.27373c-3.627769-11.8867-14.751539-18.66467-25.420459-15.93189zm-25.89038 29.8165v12.60673l9.49631-3.61158-9.63897 15.89393-9.64457 15.90076-9.63337-8.56552-9.638972-8.56432 10.125662-3.84838v-12.61233z" transform="matrix(1 .21625 0 1 -40.867 -388.29)"/></svg>