<?xml version="1.0" encoding="UTF-8" standalone="no"?>
<svg
   xmlns:dc="http://purl.org/dc/elements/1.1/"
   xmlns:cc="http://creativecommons.org/ns#"
   xmlns:rdf="http://www.w3.org/1999/02/22-rdf-syntax-ns#"
   xmlns:svg="http://www.w3.org/2000/svg"
   xmlns="http://www.w3.org/2000/svg"
   xmlns:xlink="http://www.w3.org/1999/xlink"
   xmlns:sodipodi="http://sodipodi.sourceforge.net/DTD/sodipodi-0.dtd"
   xmlns:inkscape="http://www.inkscape.org/namespaces/inkscape"
   height="147.67"
   width="381.5"
   version="1.1"
   id="svg4471"
   inkscape:version="0.91 r13725"
   sodipodi:docname="app-halloween.svg">
  <metadata
     id="metadata4485">
    <rdf:RDF>
      <cc:Work
         rdf:about="">
        <dc:format>image/svg+xml</dc:format>
        <dc:type
           rdf:resource="http://purl.org/dc/dcmitype/StillImage" />
        <dc:title></dc:title>
      </cc:Work>
    </rdf:RDF>
  </metadata>
  <defs
     id="defs4483">
    <linearGradient
       id="linearGradient4536">
      <stop
         offset="0"
         style="stop-color:#ffe627"
         id="stop4538" />
      <stop
         offset=".44962"
         style="stop-color:#ffc200"
         id="stop4542" />
      <stop
         offset=".72481"
         style="stop-color:#f4ac00"
         id="stop4578" />
      <stop
         offset="1"
         style="stop-color:#d78b00"
         id="stop4540" />
    </linearGradient>
    <linearGradient
       id="linearGradient4310">
      <stop
         offset="0"
         style="stop-color:#398c24"
         id="stop4312" />
      <stop
         offset="1"
         style="stop-color:#63c44b"
         id="stop4314" />
    </linearGradient>
    <filter
       x="-.040739"
       y="-.31285"
       color-interpolation-filters="sRGB"
       width="1.0815"
       height="1.6257"
       id="filter4334">
      <feGaussianBlur
         stdDeviation="9.9696019"
         id="feGaussianBlur4336" />
    </filter>
    <linearGradient
       x1="756.42"
       y1="314.6"
       gradientTransform="translate(0 73.469)"
       x2="670.03"
       gradientUnits="userSpaceOnUse"
       xlink:href="#linearGradient4536"
       y2="888.02"
       id="linearGradient4450" />
    <linearGradient
       x1="301.8"
       y1="267.55"
       gradientTransform="translate(0 73.469)"
       x2="288.56"
       gradientUnits="userSpaceOnUse"
       y2="839.03"
       id="linearGradient4463">
      <stop
         offset="0"
         style="stop-color:#ffdc10"
         id="stop4568" />
      <stop
         offset=".39532"
         style="stop-color:#f4b908"
         id="stop4570" />
      <stop
         offset=".75"
         style="stop-color:#eea704"
         id="stop4572" />
      <stop
         offset="1"
         style="stop-color:#c68000"
         id="stop4574" />
    </linearGradient>
    <linearGradient
       x1="181.75"
       y1="231.55"
       gradientTransform="translate(0 73.469)"
       x2="148.84"
       gradientUnits="userSpaceOnUse"
       y2="781.62"
       id="linearGradient4473">
      <stop
         offset="0"
         style="stop-color:#ffdc10"
         id="stop4558" />
      <stop
         offset=".36213"
         style="stop-color:#f4b908"
         id="stop4560" />
      <stop
         offset=".75"
         style="stop-color:#eea704"
         id="stop4562" />
      <stop
         offset="1"
         style="stop-color:#da9302"
         id="stop4576" />
    </linearGradient>
    <linearGradient
       x1="891.92"
       y1="400.43"
       gradientTransform="translate(0 21.107)"
       x2="825.91"
       gradientUnits="userSpaceOnUse"
       y2="839.46"
       id="linearGradient4475">
      <stop
         offset="0"
         style="stop-color:#ffe627"
         id="stop4582" />
      <stop
         offset=".48058"
         style="stop-color:#ffc200"
         id="stop4584" />
      <stop
         offset=".72481"
         style="stop-color:#f4ac00"
         id="stop4586" />
      <stop
         offset="1"
         style="stop-color:#d78b00"
         id="stop4588" />
    </linearGradient>
    <filter
       color-interpolation-filters="sRGB"
       id="filter4510">
      <feGaussianBlur
         stdDeviation="5.0338148"
         id="feGaussianBlur4512" />
    </filter>
    <filter
       color-interpolation-filters="sRGB"
       id="filter4518">
      <feGaussianBlur
         stdDeviation="1.1877312"
         id="feGaussianBlur4520" />
    </filter>
    <filter
       color-interpolation-filters="sRGB"
       id="filter4530">
      <feGaussianBlur
         stdDeviation="2.4366233"
         id="feGaussianBlur4532" />
    </filter>
    <linearGradient
       x1="595.12"
       y1="337.86"
       gradientTransform="translate(0 73.469)"
       x2="463.35"
       gradientUnits="userSpaceOnUse"
       xlink:href="#linearGradient4536"
       y2="864.08"
       id="linearGradient4534" />
    <linearGradient
       x1="438.74"
       y1="250.69"
       x2="479.89"
       gradientUnits="userSpaceOnUse"
       xlink:href="#linearGradient4310"
       y2="87.518"
       id="linearGradient4603" />
    <linearGradient
       x1="450.79"
       y1="150.79"
       gradientTransform="translate(0 21.107)"
       x2="519.98"
       gradientUnits="userSpaceOnUse"
       xlink:href="#linearGradient4310"
       y2="135.3"
       id="linearGradient4605" />
    <linearGradient
       x1="490.22"
       y1="39.797"
       x2="540.25"
       gradientUnits="userSpaceOnUse"
       y2="39.797"
       id="linearGradient4618">
      <stop
         offset="0"
         style="stop-color:#cfe96d"
         id="stop4622" />
      <stop
         offset="1"
         style="stop-color:#dfff57"
         id="stop4624" />
    </linearGradient>
    <linearGradient
       x1="622.63"
       y1="824.17"
       x2="704.56"
       gradientUnits="userSpaceOnUse"
       y2="286.09"
       id="linearGradient4634">
      <stop
         offset="0"
         style="stop-color:#b58b00"
         id="stop4630" />
      <stop
         offset="1"
         style="stop-color:#e4af00"
         id="stop4632" />
    </linearGradient>
    <linearGradient
       id="linearGradient3480">
      <stop
         offset="0"
         stop-color="#1a1a1a"
         id="stop3482" />
      <stop
         offset="1"
         stop-color="#494949"
         id="stop3484" />
    </linearGradient>
    <linearGradient
       id="linearGradient3689">
      <stop
         offset="0"
         stop-color="#fff690"
         id="stop3691" />
      <stop
         offset="1"
         stop-color="#f2ff00"
         id="stop3693" />
    </linearGradient>
    <linearGradient
       id="linearGradient3669">
      <stop
         offset="0"
         stop-color="#ffd73b"
         id="stop3671" />
      <stop
         offset="1"
         stop-color="#ee8400"
         id="stop3673" />
    </linearGradient>
    <filter
       x="-.047150"
       y="-.29883"
       color-interpolation-filters="sRGB"
       width="1.0943"
       height="1.5977"
       id="filter3641">
      <feGaussianBlur
         stdDeviation="0.67728367"
         id="feGaussianBlur3643" />
    </filter>
    <filter
       x="-.29160"
       y="-.29437"
       color-interpolation-filters="sRGB"
       width="1.5832"
       height="1.5887"
       id="filter3866">
      <feGaussianBlur
         stdDeviation="3.7554505"
         id="feGaussianBlur3868" />
    </filter>
    <filter
       x="-.12989"
       y="-.16757"
       color-interpolation-filters="sRGB"
       width="1.2598"
       height="1.3351"
       id="filter3900">
      <feGaussianBlur
         stdDeviation="3.9990335"
         id="feGaussianBlur3902" />
    </filter>
    <filter
       x="-.079065"
       y="-.14544"
       color-interpolation-filters="sRGB"
       width="1.1581"
       height="1.2909"
       id="filter3912">
      <feGaussianBlur
         stdDeviation="0.39212011"
         id="feGaussianBlur3914" />
    </filter>
    <linearGradient
       x1="278.65"
       y1="138.32"
       gradientTransform="translate(-3.0596,328.13)"
       x2="88.269"
       gradientUnits="userSpaceOnUse"
       xlink:href="#linearGradient3480"
       y2="38.805"
       id="linearGradient3488" />
    <linearGradient
       x1="243.17"
       y1="62.129"
       gradientTransform="translate(-3.0596,328.13)"
       x2="156.63"
       gradientUnits="userSpaceOnUse"
       xlink:href="#linearGradient3480"
       y2="46.553"
       id="linearGradient3492" />
    <linearGradient
       x1="181.11"
       y1="87.591"
       x2="216.19"
       gradientUnits="userSpaceOnUse"
       xlink:href="#linearGradient3689"
       y2="121.09"
       id="linearGradient3510" />
    <filter
       x="-.10234"
       y="-.12415"
       color-interpolation-filters="sRGB"
       width="1.2047"
       height="1.2483"
       id="filter4294">
      <feGaussianBlur
         stdDeviation="0.82297599"
         id="feGaussianBlur4296" />
    </filter>
    <filter
       x="-.036245"
       y="-.15206"
       color-interpolation-filters="sRGB"
       width="1.0725"
       height="1.3041"
       id="filter4310">
      <feGaussianBlur
         stdDeviation="1.2093567"
         id="feGaussianBlur4312" />
    </filter>
    <filter
       color-interpolation-filters="sRGB"
       id="filter4320">
      <feGaussianBlur
         stdDeviation="1.3388216"
         id="feGaussianBlur4322" />
    </filter>
    <linearGradient
       x1="183.12"
       y1="72.875"
       gradientTransform="translate(81.373,367.81)"
       x2="192.25"
       gradientUnits="userSpaceOnUse"
       xlink:href="#linearGradient3669"
       y2="55.5"
       id="linearGradient4325" />
    <linearGradient
       x1="29.023"
       y1="24.615"
       gradientTransform="matrix(6.4001,0,0,6.4001,44.568,332.28)"
       x2="37.241"
       gradientUnits="userSpaceOnUse"
       xlink:href="#linearGradient3669"
       y2="21.311"
       id="linearGradient4331" />
    <linearGradient
       x1="22.384"
       y1="1023.9"
       gradientTransform="matrix(6.4001,0,0,6.4001,37.818,-6101.5)"
       x2="15.644"
       gradientUnits="userSpaceOnUse"
       xlink:href="#linearGradient3669"
       y2="1017.5"
       id="linearGradient4334" />
    <linearGradient
       x1="8.9687"
       y1="25.848"
       gradientTransform="matrix(6.4001,0,0,6.4001,44.568,332.28)"
       x2="17.828"
       gradientUnits="userSpaceOnUse"
       xlink:href="#linearGradient3669"
       y2="29.798"
       id="linearGradient4340" />
    <linearGradient
       x1="14.27"
       y1="26.721"
       gradientTransform="matrix(6.4001,0,0,6.4001,44.568,24.012)"
       x2="25.219"
       gradientUnits="userSpaceOnUse"
       xlink:href="#linearGradient3669"
       y2="26.058"
       id="linearGradient4343" />
    <linearGradient
       x1="24.367"
       y1="29.051"
       gradientTransform="matrix(6.4001,0,0,6.4001,44.568,24.012)"
       x2="31.867"
       gradientUnits="userSpaceOnUse"
       xlink:href="#linearGradient3669"
       y2="29.106"
       id="linearGradient4377" />
    <radialGradient
       r="17.592"
       gradientTransform="matrix(2.5639,5.7921,-4.9198,2.1778,5148.7,-2168.9)"
       cx="17.36"
       cy="1023.9"
       gradientUnits="userSpaceOnUse"
       xlink:href="#linearGradient3669"
       id="radialGradient4380" />
    <linearGradient
       id="linearGradient3701">
      <stop
         offset="0"
         stop-color="#704608"
         id="stop3703" />
      <stop
         offset="1"
         stop-color="#ab8855"
         id="stop3705" />
    </linearGradient>
    <linearGradient
       x1="143.88"
       y1="184.72"
       x2="173"
       gradientUnits="userSpaceOnUse"
       xlink:href="#linearGradient3701"
       y2="184.72"
       id="linearGradient4864" />
    <linearGradient
       x1="218.07"
       y1="205.48"
       x2="262.64"
       gradientUnits="userSpaceOnUse"
       xlink:href="#linearGradient3701"
       y2="172.37"
       id="linearGradient4868" />
    <linearGradient
       x1="158.51"
       y1="274.19"
       x2="224.85"
       gradientUnits="userSpaceOnUse"
       xlink:href="#linearGradient3701"
       y2="227.25"
       id="linearGradient4872" />
    <radialGradient
       r="17.592"
       gradientTransform="matrix(2.745,4.3867,-6.8695,4.2987,7131.1,-3989.7)"
       cx="27.844"
       cy="1021.1"
       gradientUnits="userSpaceOnUse"
       xlink:href="#linearGradient3689"
       id="radialGradient5168" />
  </defs>
  <sodipodi:namedview
     pagecolor="#ffffff"
     bordercolor="#666666"
     borderopacity="1"
     objecttolerance="10"
     gridtolerance="10"
     guidetolerance="10"
     inkscape:pageopacity="0"
     inkscape:pageshadow="2"
     inkscape:window-width="1436"
     inkscape:window-height="856"
     id="namedview4481"
     showgrid="false"
     inkscape:zoom="0.57458218"
     inkscape:cx="164.20678"
     inkscape:cy="108.6429"
     inkscape:window-x="0"
     inkscape:window-y="0"
     inkscape:window-maximized="1"
     inkscape:current-layer="svg4471" />
  <path
     d="m 161.64,51.588 24.142,0 0,71.554 -24.14,0 0,-71.556 z m 12.217,-5.817 c -4.07,0 -7.197,-1.02 -9.38,-3.054 -2.18,-2.036 -3.272,-4.75 -3.272,-8.145 0,-3.2 1.09,-5.916 3.272,-8.145 2.183,-2.23 5.31,-3.345 9.38,-3.345 4.073,0 7.2,1.115 9.38,3.345 2.183,2.23 3.274,4.945 3.274,8.144 0,3.393 -1.09,6.108 -3.272,8.144 -2.18,2.035 -5.308,3.054 -9.38,3.054 m 47.11,78.814 c -6.98,0 -12.24,-1.866 -15.78,-5.6 -3.54,-3.732 -5.31,-8.944 -5.31,-15.634 l 0,-33.884 -9.596,0 0,-17.89 9.597,0 0,-17.45 24.143,0 0,17.45 15.707,0 0,17.89 -15.71,0 0,30.396 c 0,2.23 0.46,3.806 1.382,4.728 0.922,0.922 2.35,1.38 4.29,1.38 2.618,0 5.478,-1.162 8.58,-3.49 l 5.528,15.853 c -2.81,1.94 -6.01,3.468 -9.6,4.583 -3.59,1.115 -8,1.672 -13.234,1.672 m 58.43,0 c -11.053,0 -19.755,-3.15 -26.105,-9.454 -6.353,-6.3 -9.528,-15.464 -9.528,-27.485 0,-8.726 1.794,-16.047 5.38,-21.96 3.685,-6.11 8.292,-10.23 13.82,-12.364 5.815,-2.23 11.197,-3.344 16.142,-3.344 6.203,0 11.392,1.237 15.56,3.71 4.17,2.472 7.248,5.162 9.236,8.07 1.988,2.908 3.417,5.188 4.29,6.837 l -16.725,10.76 c -1.55,-3.198 -3.248,-5.72 -5.09,-7.562 -1.843,-1.84 -4.073,-2.76 -6.69,-2.76 -3.685,0 -6.593,1.453 -8.726,4.36 -2.134,2.91 -3.2,7.32 -3.2,13.236 0,6.4 1.26,11.102 3.78,14.108 2.52,3.005 6.11,4.507 10.762,4.507 3.684,0 6.763,-0.676 9.237,-2.035 2.47,-1.356 4.82,-3.1 7.05,-5.235 l 7.71,18.034 c -2.328,1.94 -5.77,3.855 -10.325,5.745 -4.56,1.89 -10.085,2.835 -16.58,2.835 m 34.47,-1.44 0,-97.15 24.287,0 0,29.523 c 2.037,-1.455 4.51,-2.74 7.417,-3.854 2.91,-1.115 6.4,-1.673 10.473,-1.673 8.53,0 14.907,2.425 19.125,7.273 4.218,4.848 6.326,11.683 6.326,20.506 l 0,45.375 -24.286,0 0,-42.467 c 0,-4.072 -0.775,-7.054 -2.327,-8.944 -1.552,-1.89 -3.59,-2.836 -6.11,-2.836 -2.132,0 -4.12,0.485 -5.962,1.455 -1.84,0.968 -3.394,1.986 -4.654,3.052 l 0,49.74 -24.286,0 z"
     id="path4473"
     inkscape:connector-curvature="0"
     style="fill:#ffffff" />
  <g
     transform="matrix(1 .21625 0 1 -40.867 -388.29)"
     fill="#fff"
     id="g4475" />
  <g
     id="g6587"
     transform="matrix(0.12449638,0,0,0.12449638,9.9675892,151.55681)">
    <g
       id="g6589">
      <path
         id="path6591"
         d="m 943.95897,-818.44455 c -49.3,-60.49998 -102.3,-90.79998 -158.9,-90.79998 -40.1,0 -77.6,16 -112.8,48.3 -24.4,-18.6 -50.8,-31.8 -79.1,-39.6 -5.9,-76.1 -39.5,-131.29997 -101.1,-165.59987 l -64.4,45.4999 c 42,27.29997 66.4,65.39997 73.2,114.19997 -42,4.9 -81.1,20.5 -117.2,46.8 -36.1,-33.2 -74.7,-49.7 -115.7,-49.7 -57.6,0 -109.4,30.2 -155.3,90.79998 -49.800003,62.6 -74.700003,136.4 -74.700003,221.3 0,21.5 2,43 5.8,64.5 14.7,87.9 55.7,164.6 123.100003,230 60.5,59.6 116.7,89.4 168.5,89.4 1.2,0 2.5,0 3.7,-0.1 59.3,-18.2 122.2,-28 187.4,-28 54.5,0 107.3,6.8 157.8,19.7 l -0.3,-0.4 1.2,0.6 c 9.6,2.5 19.2,5.2 28.7,8.1 1.3,0.1 2.6,0.1 3.8,0.1 51.8,0 107.4,-29.8 167,-89.4 l 0,0 c 65.4,-65.4 107.4,-142.1 126.00003,-230 4.9,-24.4 7.3,-48.3 7.3,-71.8 0,-82.1 -24.70003,-153.4 -74.00003,-213.9 z m -721.4,118.7 209.4,71.8 c -17.6,47.8 -49.3,71.7 -95.2,71.7 -12.7,0 -23.9,-2 -33.7,-5.9 l 0,0 c -62.5,-25.3 -89.3,-71.2 -80.5,-137.6 z m 186,448.3 c 1,-1 2.4,-2.5 4.4,-4.4 l 1.5,1.5 c -1,0.9 -3,1.9 -5.9,2.9 z m 357.5,-136.3 -482,0 -35.1,-98.2 93.8,63.1 76.1,-63.1 102.6,71.8 106.9,-76.1 83.5,71.8 98.2,-61.5 -44,92.2 z m 0,-174.3 c -10.8,3.9 -22,5.9 -33.7,5.9 -46.9,0 -78.7,-23.9 -95.2,-71.7 l 209.4,-71.9 c 7.8,66.4 -19.1,112.3 -80.5,137.7 z"
         inkscape:connector-curvature="0"
         style="fill:#ffffff;fill-opacity:1" />
    </g>
    <g
       id="g6593" />
    <g
       id="g6595" />
    <g
       id="g6597" />
    <g
       id="g6599" />
    <g
       id="g6601" />
    <g
       id="g6603" />
    <g
       id="g6605" />
    <g
       id="g6607" />
    <g
       id="g6609" />
    <g
       id="g6611" />
    <g
       id="g6613" />
    <g
       id="g6615" />
    <g
       id="g6617" />
    <g
       id="g6619" />
    <g
       id="g6621" />
  </g>
</svg>
