<?xml version="1.0" encoding="UTF-8" standalone="no"?>
<svg
   xmlns:dc="http://purl.org/dc/elements/1.1/"
   xmlns:cc="http://creativecommons.org/ns#"
   xmlns:rdf="http://www.w3.org/1999/02/22-rdf-syntax-ns#"
   xmlns:svg="http://www.w3.org/2000/svg"
   xmlns="http://www.w3.org/2000/svg"
   xmlns:xlink="http://www.w3.org/1999/xlink"
   xmlns:sodipodi="http://sodipodi.sourceforge.net/DTD/sodipodi-0.dtd"
   xmlns:inkscape="http://www.inkscape.org/namespaces/inkscape"
   height="147.67"
   width="381.5"
   version="1.1"
   id="svg4471"
   inkscape:version="0.91 r13725"
   sodipodi:docname="app-halloween.svg">
  <metadata
     id="metadata4485">
    <rdf:RDF>
      <cc:Work
         rdf:about="">
        <dc:format>image/svg+xml</dc:format>
        <dc:type
           rdf:resource="http://purl.org/dc/dcmitype/StillImage" />
        <dc:title></dc:title>
      </cc:Work>
    </rdf:RDF>
  </metadata>
  <defs
     id="defs4483">
    <linearGradient
       id="linearGradient4536">
      <stop
         offset="0"
         style="stop-color:#ffe627"
         id="stop4538" />
      <stop
         offset=".44962"
         style="stop-color:#ffc200"
         id="stop4542" />
      <stop
         offset=".72481"
         style="stop-color:#f4ac00"
         id="stop4578" />
      <stop
         offset="1"
         style="stop-color:#d78b00"
         id="stop4540" />
    </linearGradient>
    <linearGradient
       id="linearGradient4310">
      <stop
         offset="0"
         style="stop-color:#398c24"
         id="stop4312" />
      <stop
         offset="1"
         style="stop-color:#63c44b"
         id="stop4314" />
    </linearGradient>
    <filter
       x="-.040739"
       y="-.31285"
       color-interpolation-filters="sRGB"
       width="1.0815"
       height="1.6257"
       id="filter4334">
      <feGaussianBlur
         stdDeviation="9.9696019"
         id="feGaussianBlur4336" />
    </filter>
    <linearGradient
       x1="756.42"
       y1="314.6"
       gradientTransform="translate(0 73.469)"
       x2="670.03"
       gradientUnits="userSpaceOnUse"
       xlink:href="#linearGradient4536"
       y2="888.02"
       id="linearGradient4450" />
    <linearGradient
       x1="301.8"
       y1="267.55"
       gradientTransform="translate(0 73.469)"
       x2="288.56"
       gradientUnits="userSpaceOnUse"
       y2="839.03"
       id="linearGradient4463">
      <stop
         offset="0"
         style="stop-color:#ffdc10"
         id="stop4568" />
      <stop
         offset=".39532"
         style="stop-color:#f4b908"
         id="stop4570" />
      <stop
         offset=".75"
         style="stop-color:#eea704"
         id="stop4572" />
      <stop
         offset="1"
         style="stop-color:#c68000"
         id="stop4574" />
    </linearGradient>
    <linearGradient
       x1="181.75"
       y1="231.55"
       gradientTransform="translate(0 73.469)"
       x2="148.84"
       gradientUnits="userSpaceOnUse"
       y2="781.62"
       id="linearGradient4473">
      <stop
         offset="0"
         style="stop-color:#ffdc10"
         id="stop4558" />
      <stop
         offset=".36213"
         style="stop-color:#f4b908"
         id="stop4560" />
      <stop
         offset=".75"
         style="stop-color:#eea704"
         id="stop4562" />
      <stop
         offset="1"
         style="stop-color:#da9302"
         id="stop4576" />
    </linearGradient>
    <linearGradient
       x1="891.92"
       y1="400.43"
       gradientTransform="translate(0 21.107)"
       x2="825.91"
       gradientUnits="userSpaceOnUse"
       y2="839.46"
       id="linearGradient4475">
      <stop
         offset="0"
         style="stop-color:#ffe627"
         id="stop4582" />
      <stop
         offset=".48058"
         style="stop-color:#ffc200"
         id="stop4584" />
      <stop
         offset=".72481"
         style="stop-color:#f4ac00"
         id="stop4586" />
      <stop
         offset="1"
         style="stop-color:#d78b00"
         id="stop4588" />
    </linearGradient>
    <filter
       color-interpolation-filters="sRGB"
       id="filter4510">
      <feGaussianBlur
         stdDeviation="5.0338148"
         id="feGaussianBlur4512" />
    </filter>
    <filter
       color-interpolation-filters="sRGB"
       id="filter4518">
      <feGaussianBlur
         stdDeviation="1.1877312"
         id="feGaussianBlur4520" />
    </filter>
    <filter
       color-interpolation-filters="sRGB"
       id="filter4530">
      <feGaussianBlur
         stdDeviation="2.4366233"
         id="feGaussianBlur4532" />
    </filter>
    <linearGradient
       x1="595.12"
       y1="337.86"
       gradientTransform="translate(0 73.469)"
       x2="463.35"
       gradientUnits="userSpaceOnUse"
       xlink:href="#linearGradient4536"
       y2="864.08"
       id="linearGradient4534" />
    <linearGradient
       x1="438.74"
       y1="250.69"
       x2="479.89"
       gradientUnits="userSpaceOnUse"
       xlink:href="#linearGradient4310"
       y2="87.518"
       id="linearGradient4603" />
    <linearGradient
       x1="450.79"
       y1="150.79"
       gradientTransform="translate(0 21.107)"
       x2="519.98"
       gradientUnits="userSpaceOnUse"
       xlink:href="#linearGradient4310"
       y2="135.3"
       id="linearGradient4605" />
    <linearGradient
       x1="490.22"
       y1="39.797"
       x2="540.25"
       gradientUnits="userSpaceOnUse"
       y2="39.797"
       id="linearGradient4618">
      <stop
         offset="0"
         style="stop-color:#cfe96d"
         id="stop4622" />
      <stop
         offset="1"
         style="stop-color:#dfff57"
         id="stop4624" />
    </linearGradient>
    <linearGradient
       x1="622.63"
       y1="824.17"
       x2="704.56"
       gradientUnits="userSpaceOnUse"
       y2="286.09"
       id="linearGradient4634">
      <stop
         offset="0"
         style="stop-color:#b58b00"
         id="stop4630" />
      <stop
         offset="1"
         style="stop-color:#e4af00"
         id="stop4632" />
    </linearGradient>
    <linearGradient
       id="linearGradient3480">
      <stop
         offset="0"
         stop-color="#1a1a1a"
         id="stop3482" />
      <stop
         offset="1"
         stop-color="#494949"
         id="stop3484" />
    </linearGradient>
    <linearGradient
       id="linearGradient3689">
      <stop
         offset="0"
         stop-color="#fff690"
         id="stop3691" />
      <stop
         offset="1"
         stop-color="#f2ff00"
         id="stop3693" />
    </linearGradient>
    <linearGradient
       id="linearGradient3669">
      <stop
         offset="0"
         stop-color="#ffd73b"
         id="stop3671" />
      <stop
         offset="1"
         stop-color="#ee8400"
         id="stop3673" />
    </linearGradient>
    <filter
       x="-.047150"
       y="-.29883"
       color-interpolation-filters="sRGB"
       width="1.0943"
       height="1.5977"
       id="filter3641">
      <feGaussianBlur
         stdDeviation="0.67728367"
         id="feGaussianBlur3643" />
    </filter>
    <filter
       x="-.29160"
       y="-.29437"
       color-interpolation-filters="sRGB"
       width="1.5832"
       height="1.5887"
       id="filter3866">
      <feGaussianBlur
         stdDeviation="3.7554505"
         id="feGaussianBlur3868" />
    </filter>
    <filter
       x="-.12989"
       y="-.16757"
       color-interpolation-filters="sRGB"
       width="1.2598"
       height="1.3351"
       id="filter3900">
      <feGaussianBlur
         stdDeviation="3.9990335"
         id="feGaussianBlur3902" />
    </filter>
    <filter
       x="-.079065"
       y="-.14544"
       color-interpolation-filters="sRGB"
       width="1.1581"
       height="1.2909"
       id="filter3912">
      <feGaussianBlur
         stdDeviation="0.39212011"
         id="feGaussianBlur3914" />
    </filter>
    <linearGradient
       x1="278.65"
       y1="138.32"
       gradientTransform="translate(-3.0596,328.13)"
       x2="88.269"
       gradientUnits="userSpaceOnUse"
       xlink:href="#linearGradient3480"
       y2="38.805"
       id="linearGradient3488" />
    <linearGradient
       x1="243.17"
       y1="62.129"
       gradientTransform="translate(-3.0596,328.13)"
       x2="156.63"
       gradientUnits="userSpaceOnUse"
       xlink:href="#linearGradient3480"
       y2="46.553"
       id="linearGradient3492" />
    <linearGradient
       x1="181.11"
       y1="87.591"
       x2="216.19"
       gradientUnits="userSpaceOnUse"
       xlink:href="#linearGradient3689"
       y2="121.09"
       id="linearGradient3510" />
    <filter
       x="-.10234"
       y="-.12415"
       color-interpolation-filters="sRGB"
       width="1.2047"
       height="1.2483"
       id="filter4294">
      <feGaussianBlur
         stdDeviation="0.82297599"
         id="feGaussianBlur4296" />
    </filter>
    <filter
       x="-.036245"
       y="-.15206"
       color-interpolation-filters="sRGB"
       width="1.0725"
       height="1.3041"
       id="filter4310">
      <feGaussianBlur
         stdDeviation="1.2093567"
         id="feGaussianBlur4312" />
    </filter>
    <filter
       color-interpolation-filters="sRGB"
       id="filter4320">
      <feGaussianBlur
         stdDeviation="1.3388216"
         id="feGaussianBlur4322" />
    </filter>
    <linearGradient
       x1="183.12"
       y1="72.875"
       gradientTransform="translate(81.373,367.81)"
       x2="192.25"
       gradientUnits="userSpaceOnUse"
       xlink:href="#linearGradient3669"
       y2="55.5"
       id="linearGradient4325" />
    <linearGradient
       x1="29.023"
       y1="24.615"
       gradientTransform="matrix(6.4001,0,0,6.4001,44.568,332.28)"
       x2="37.241"
       gradientUnits="userSpaceOnUse"
       xlink:href="#linearGradient3669"
       y2="21.311"
       id="linearGradient4331" />
    <linearGradient
       x1="22.384"
       y1="1023.9"
       gradientTransform="matrix(6.4001,0,0,6.4001,37.818,-6101.5)"
       x2="15.644"
       gradientUnits="userSpaceOnUse"
       xlink:href="#linearGradient3669"
       y2="1017.5"
       id="linearGradient4334" />
    <linearGradient
       x1="8.9687"
       y1="25.848"
       gradientTransform="matrix(6.4001,0,0,6.4001,44.568,332.28)"
       x2="17.828"
       gradientUnits="userSpaceOnUse"
       xlink:href="#linearGradient3669"
       y2="29.798"
       id="linearGradient4340" />
    <linearGradient
       x1="14.27"
       y1="26.721"
       gradientTransform="matrix(6.4001,0,0,6.4001,44.568,24.012)"
       x2="25.219"
       gradientUnits="userSpaceOnUse"
       xlink:href="#linearGradient3669"
       y2="26.058"
       id="linearGradient4343" />
    <linearGradient
       x1="24.367"
       y1="29.051"
       gradientTransform="matrix(6.4001,0,0,6.4001,44.568,24.012)"
       x2="31.867"
       gradientUnits="userSpaceOnUse"
       xlink:href="#linearGradient3669"
       y2="29.106"
       id="linearGradient4377" />
    <radialGradient
       r="17.592"
       gradientTransform="matrix(2.5639,5.7921,-4.9198,2.1778,5148.7,-2168.9)"
       cx="17.36"
       cy="1023.9"
       gradientUnits="userSpaceOnUse"
       xlink:href="#linearGradient3669"
       id="radialGradient4380" />
    <linearGradient
       id="linearGradient3701">
      <stop
         offset="0"
         stop-color="#704608"
         id="stop3703" />
      <stop
         offset="1"
         stop-color="#ab8855"
         id="stop3705" />
    </linearGradient>
    <linearGradient
       x1="143.88"
       y1="184.72"
       x2="173"
       gradientUnits="userSpaceOnUse"
       xlink:href="#linearGradient3701"
       y2="184.72"
       id="linearGradient4864" />
    <linearGradient
       x1="218.07"
       y1="205.48"
       x2="262.64"
       gradientUnits="userSpaceOnUse"
       xlink:href="#linearGradient3701"
       y2="172.37"
       id="linearGradient4868" />
    <linearGradient
       x1="158.51"
       y1="274.19"
       x2="224.85"
       gradientUnits="userSpaceOnUse"
       xlink:href="#linearGradient3701"
       y2="227.25"
       id="linearGradient4872" />
    <radialGradient
       r="17.592"
       gradientTransform="matrix(2.745,4.3867,-6.8695,4.2987,7131.1,-3989.7)"
       cx="27.844"
       cy="1021.1"
       gradientUnits="userSpaceOnUse"
       xlink:href="#linearGradient3689"
       id="radialGradient5168" />
  </defs>
  <sodipodi:namedview
     pagecolor="#787878"
     bordercolor="#666666"
     borderopacity="1"
     objecttolerance="10"
     gridtolerance="10"
     guidetolerance="10"
     inkscape:pageopacity="0"
     inkscape:pageshadow="2"
     inkscape:window-width="1920"
     inkscape:window-height="1002"
     id="namedview4481"
     showgrid="false"
     inkscape:zoom="1.8101934"
     inkscape:cx="72.822852"
     inkscape:cy="-65.914184"
     inkscape:window-x="0"
     inkscape:window-y="25"
     inkscape:window-maximized="1"
     inkscape:current-layer="svg4471" />
  <path
     d="m 161.64,51.588 24.142,0 0,71.554 -24.14,0 0,-71.556 z m 12.217,-5.817 c -4.07,0 -7.197,-1.02 -9.38,-3.054 -2.18,-2.036 -3.272,-4.75 -3.272,-8.145 0,-3.2 1.09,-5.916 3.272,-8.145 2.183,-2.23 5.31,-3.345 9.38,-3.345 4.073,0 7.2,1.115 9.38,3.345 2.183,2.23 3.274,4.945 3.274,8.144 0,3.393 -1.09,6.108 -3.272,8.144 -2.18,2.035 -5.308,3.054 -9.38,3.054 m 47.11,78.814 c -6.98,0 -12.24,-1.866 -15.78,-5.6 -3.54,-3.732 -5.31,-8.944 -5.31,-15.634 l 0,-33.884 -9.596,0 0,-17.89 9.597,0 0,-17.45 24.143,0 0,17.45 15.707,0 0,17.89 -15.71,0 0,30.396 c 0,2.23 0.46,3.806 1.382,4.728 0.922,0.922 2.35,1.38 4.29,1.38 2.618,0 5.478,-1.162 8.58,-3.49 l 5.528,15.853 c -2.81,1.94 -6.01,3.468 -9.6,4.583 -3.59,1.115 -8,1.672 -13.234,1.672 m 58.43,0 c -11.053,0 -19.755,-3.15 -26.105,-9.454 -6.353,-6.3 -9.528,-15.464 -9.528,-27.485 0,-8.726 1.794,-16.047 5.38,-21.96 3.685,-6.11 8.292,-10.23 13.82,-12.364 5.815,-2.23 11.197,-3.344 16.142,-3.344 6.203,0 11.392,1.237 15.56,3.71 4.17,2.472 7.248,5.162 9.236,8.07 1.988,2.908 3.417,5.188 4.29,6.837 l -16.725,10.76 c -1.55,-3.198 -3.248,-5.72 -5.09,-7.562 -1.843,-1.84 -4.073,-2.76 -6.69,-2.76 -3.685,0 -6.593,1.453 -8.726,4.36 -2.134,2.91 -3.2,7.32 -3.2,13.236 0,6.4 1.26,11.102 3.78,14.108 2.52,3.005 6.11,4.507 10.762,4.507 3.684,0 6.763,-0.676 9.237,-2.035 2.47,-1.356 4.82,-3.1 7.05,-5.235 l 7.71,18.034 c -2.328,1.94 -5.77,3.855 -10.325,5.745 -4.56,1.89 -10.085,2.835 -16.58,2.835 m 34.47,-1.44 0,-97.15 24.287,0 0,29.523 c 2.037,-1.455 4.51,-2.74 7.417,-3.854 2.91,-1.115 6.4,-1.673 10.473,-1.673 8.53,0 14.907,2.425 19.125,7.273 4.218,4.848 6.326,11.683 6.326,20.506 l 0,45.375 -24.286,0 0,-42.467 c 0,-4.072 -0.775,-7.054 -2.327,-8.944 -1.552,-1.89 -3.59,-2.836 -6.11,-2.836 -2.132,0 -4.12,0.485 -5.962,1.455 -1.84,0.968 -3.394,1.986 -4.654,3.052 l 0,49.74 -24.286,0 z"
     id="path4473"
     inkscape:connector-curvature="0"
     style="fill:#ffffff" />
  <g
     transform="matrix(1 .21625 0 1 -40.867 -388.29)"
     fill="#fff"
     id="g4475" />
  <g
     id="g4322"
     transform="matrix(0.49962838,0,0,0.49962833,15.269113,10.609899)">
    <path
       id="path4314"
       d="m 133.94,-0.0018082 c 0,0 -16.524,8.6543 -20.032,27.1950002 -33.524,0.0634 -73.033,0.56659 -81.921,1.3418 -10.705,6.356 -31.788,30.58 -31.99,36.934 l 0,10.516 c 0,13.331 12.459,25.046998 23.771,25.046998 13.584,0 24.903,-11.259998 24.904,-24.620998 0,13.361 10.928,24.620998 24.514,24.620998 13.585,0 24.164,-11.259998 24.164,-24.620998 0,13.361 11.622,24.620998 25.207,24.620998 0.0403,0 0.0808,-0.002 0.12109,-0.002 l 0.006,0 c 0.0402,2e-4 0.0807,0.002 0.1211,0.002 13.585,0 25.207,-11.259998 25.207,-24.620998 1e-5,13.361 10.579,24.620998 24.164,24.620998 13.585,0 24.514,-11.259998 24.514,-24.620998 0.001,13.361 11.32,24.620998 24.904,24.620998 11.313,0 23.771,-11.714998 23.771,-25.046998 l 0,-10.516 c -0.2019,-6.3543 -21.287,-30.579 -31.988,-36.933 -30.539,-1.072 -50.946,-1.3175 -80.932,-1.3496 1.0637,-13.659 13.159,-16.289 13.159,-16.289 0,0 -6.7548,-0.4607 -9.2109,-2.3027002 -4.8627,-3.647 -2.457,-8.5957 -2.457,-8.5957 z M 97.183,94.752192 c -1.2934,2.2706 -2.9162,4.331 -4.7812,6.154298 -5.1278,5.0145 -12.155,8.123 -19.904,8.123 -7.7522,0 -14.822,-3.1077 -19.949,-8.125 -1.8581,-1.819198 -3.269,-3.766098 -4.5625,-6.031198 l -0.006,0.004 c -1.2934,2.2706 -3.0928,4.2132 -4.9551,6.035098 -5.1278,5.0146 -12.199,8.1211 -19.947,8.1211 -0.9345,0 -1.9076,-0.25966 -2.6934,-0.52929 -1.0924,11.372 -1.551,22.239 -1.7148,30.164 -3e-4,0.0145 -0.004,0.0323 -0.004,0.0469 -0.021,4.0235 -0.0385,7.3329 -0.0586,11.93 0.21006,23.86 -2.3633,77.333 10.519,90.472 19.964,4.6549 56.699,6.7762 93.554,6.789 l 0.006,0 c 36.855,-0.0128 73.589,-2.1342 93.554,-6.789 12.883,-13.14 10.31,-66.612 10.52,-90.472 -0.0201,-4.5967 -0.0377,-7.9061 -0.0586,-11.93 0,-0.0146 -0.002,-0.0324 -0.002,-0.0469 -0.16381,-7.9253 -0.62441,-18.792 -1.7168,-30.164 -0.78586,0.26963 -1.7569,0.52932 -2.6914,0.52929 -7.748,0 -14.821,-3.1066 -19.949,-8.1211 -1.8623,-1.821998 -3.6616,-3.764498 -4.9551,-6.035098 l -0.006,-0.004 c -1.2934,2.2652 -2.7044,4.212 -4.5625,6.031198 -5.1264,5.0173 -12.195,8.125 -19.947,8.125 -7.7481,0 -14.778,-3.1085 -19.906,-8.123 -1.865,-1.823298 -3.4878,-3.883698 -4.7812,-6.154298 -1.292,2.2652 -2.8749,4.335 -4.7344,6.154298 -5.1278,5.0173 -12.199,8.125 -19.951,8.125 -0.27271,0 -0.54157,-0.0139 -0.8125,-0.0215 -0.002,-6e-5 -0.004,6e-5 -0.006,0 -0.27093,0.008 -0.53979,0.0215 -0.8125,0.0215 -7.7522,0 -14.821,-3.1077 -19.949,-8.125 -1.8595,-1.819298 -3.4442,-3.889098 -4.7363,-6.154298 z m -24.682,21.073998 34.328,10.139 c 0.4413,2.9966 0.22646,6.069 -0.6289,8.9941 -0.29248,0.96147 -0.65282,1.9008 -1.0781,2.8105 -1.05,-0.80149 -2.2365,-1.4063 -3.5019,-1.7852 -5.7974,-1.7138 -11.886,1.597 -13.6,7.3945 -0.61148,2.0807 -0.59109,4.2961 0.0586,6.3652 -2.2699,0.15512 -4.5417,-0.0906 -6.7168,-0.72656 -10.507,-3.1027 -16.423,-14.429 -13.215,-25.299 0.86962,-2.92 2.3568,-5.6161 4.3535,-7.8926 z m 96.029,3.1484 c 1.1297,2.2678 1.843,4.7303 2.1035,7.2617 1.1326,11.277 -6.7862,21.307 -17.687,22.402 -0.0521,0.003 -0.10416,0.005 -0.15625,0.008 0.95836,-1.8696 1.3584,-3.9756 1.1523,-6.0664 -0.60305,-6.0163 -5.9702,-10.404 -11.986,-9.7988 -3.4756,0.35402 -6.5735,2.346 -8.3379,5.3613 -1.3361,-2.449 -2.1743,-5.1518 -2.4629,-7.9414 -0.25306,-2.531 -0.0491,-5.0855 0.60157,-7.5332 z m -48.621,30.719 0.004,0.002 0,0.002 c 0,0 15.153,13.917 17.875,18.861 l -9.914,-0.3965 0,8.6445 c 0,0.40468 -3.9796,0.24045 -7.9609,0.0566 -0.001,-7e-5 -0.003,7e-5 -0.004,0 -3.9816,0.18384 -7.959,0.34805 -7.959,-0.0566 l 0,-8.6445 -9.914,0.3965 c 2.7216,-4.945 17.859,-18.847 17.873,-18.861 z m 80.304,1.2969 c 0,0 -7.6336,50.651 -41.408,73.25 l 0.10742,-11.674 c -8.0383,5.2479 -15.794,6.7418 -23.26,5.1123 l 0,16.05 c -4.3436,0.82262 -8.962,1.2442 -13.883,1.1758 -65.672,-0.91208 -76.617,-82.092 -76.617,-82.092 11.57,11.453 22.716,19.926 33.365,26.021 l 0.1543,16.621 c 14.216,-9.6861 14.367,2.7383 21.664,2.7383 l 0,-9.8008 c 60.35,18.265 99.877,-37.402 99.877,-37.402 z"
       style="color:#000000;fill:#ffffff"
       inkscape:connector-curvature="0" />
  </g>
</svg>
