<?xml version="1.0" encoding="UTF-8" standalone="no"?>
<svg xmlns:rdf="http://www.w3.org/1999/02/22-rdf-syntax-ns#" xmlns="http://www.w3.org/2000/svg" height="147.67" width="381.5" version="1.1" xmlns:cc="http://creativecommons.org/ns#" xmlns:dc="http://purl.org/dc/elements/1.1/">
 <path d="m161.64 51.588h24.142v71.554h-24.14v-71.556zm12.217-5.817c-4.07 0-7.197-1.02-9.38-3.054-2.18-2.036-3.272-4.75-3.272-8.145 0-3.2 1.09-5.916 3.272-8.145 2.183-2.23 5.31-3.345 9.38-3.345 4.073 0 7.2 1.115 9.38 3.345 2.183 2.23 3.274 4.945 3.274 8.144 0 3.393-1.09 6.108-3.272 8.144-2.18 2.035-5.308 3.054-9.38 3.054m47.11 78.814c-6.98 0-12.24-1.866-15.78-5.6-3.54-3.732-5.31-8.944-5.31-15.634v-33.884h-9.596v-17.89h9.597v-17.45h24.143v17.45h15.707v17.89h-15.71v30.396c0 2.23 0.46 3.806 1.382 4.728s2.35 1.38 4.29 1.38c2.618 0 5.478-1.162 8.58-3.49l5.528 15.853c-2.81 1.94-6.01 3.468-9.6 4.583s-8 1.672-13.234 1.672m58.43 0c-11.053 0-19.755-3.15-26.105-9.454-6.353-6.3-9.528-15.464-9.528-27.485 0-8.726 1.794-16.047 5.38-21.96 3.685-6.11 8.292-10.23 13.82-12.364 5.815-2.23 11.197-3.344 16.142-3.344 6.203 0 11.392 1.237 15.56 3.71 4.17 2.472 7.248 5.162 9.236 8.07s3.417 5.188 4.29 6.837l-16.725 10.76c-1.55-3.198-3.248-5.72-5.09-7.562-1.843-1.84-4.073-2.76-6.69-2.76-3.685 0-6.593 1.453-8.726 4.36-2.134 2.91-3.2 7.32-3.2 13.236 0 6.4 1.26 11.102 3.78 14.108 2.52 3.005 6.11 4.507 10.762 4.507 3.684 0 6.763-0.676 9.237-2.035 2.47-1.356 4.82-3.1 7.05-5.235l7.71 18.034c-2.328 1.94-5.77 3.855-10.325 5.745-4.56 1.89-10.085 2.835-16.58 2.835m34.47-1.44v-97.15h24.287v29.523c2.037-1.455 4.51-2.74 7.417-3.854 2.91-1.115 6.4-1.673 10.473-1.673 8.53 0 14.907 2.425 19.125 7.273s6.326 11.683 6.326 20.506v45.375h-24.286v-42.467c0-4.072-0.775-7.054-2.327-8.944s-3.59-2.836-6.11-2.836c-2.132 0-4.12 0.485-5.962 1.455-1.84 0.968-3.394 1.986-4.654 3.052v49.74h-24.286z" fill="#fff"/>
 <g transform="matrix(1 .21625 0 1 -40.867 -388.29)" fill="#fff">
  <path style="color:#000000" d="m160.16 353.9c-1.0274-0.0432-2.1572 0.14856-3.3457 0.60156l-107.36 40.92c-4.7542 1.812-8.582 7.1126-8.582 11.885v107.77c-0.000001 4.7722 3.8278 7.1538 8.582 5.3418l0.79297-0.30273c-0.19453-0.64689-0.30859-1.3586-0.30859-2.1426v-107.77c0-4.7722 3.843-10.076 8.6152-11.891l106.57-40.52c-0.66948-2.3606-2.517-3.7901-4.9551-3.8926z" fill-opacity=".23457"/>
  <path style="color:#000000" d="m58.549 398.19c-4.7722 1.8146-8.6152 7.119-8.6152 11.891v107.77c0 4.7722 3.843 7.152 8.6152 5.3374l107.77-40.98c4.7722-1.8146 8.6133-7.1162 8.6133-11.888v-107.77c0-4.7722-3.8411-7.1547-8.6133-5.34l-107.77 40.98zm30.461 23.154 0.008-0.003c4.9574-1.885 8.4829-0.0134 9.7324 4.35l27.4-10.419c1.2473-5.3128 4.7509-9.8573 9.709-11.743 7.8748-2.9944 16.532 1.7998 19.234 10.653l6.457 21.138c2.7034 8.8528-1.5353 18.551-9.4102 21.545-6.9132 2.6287-14.427-0.74261-17.988-7.5955l-43.436 16.516c-3.5603 9.5608-11.076 18.647-17.99 21.276-7.8763 2.995-12.112-3.4805-9.4082-14.389l6.457-26.049c2.7027-10.91 11.358-22.286 19.234-25.281zm17.035 7.5595v8.8066l-7.0703 2.6885 6.7305 5.9798 6.7266 5.9813 6.7344-11.104 6.7305-11.098-6.6309 2.5214v-8.8027l-13.221 5.0272z"/>
 </g>
</svg>
